<mxfile host="65bd71144e" pages="5">
    <diagram id="uMYcwWqvlzIxmmHfQk5L" name="ERD">
        <mxGraphModel dx="1386" dy="787" grid="1" gridSize="10" guides="1" tooltips="1" connect="1" arrows="1" fold="1" page="1" pageScale="1" pageWidth="850" pageHeight="1100" math="0" shadow="0">
            <root>
                <mxCell id="0"/>
                <mxCell id="1" parent="0"/>
                <mxCell id="XL9Mon4BR4V7tsD-f4nl-1" value="Recipe" style="swimlane;childLayout=stackLayout;horizontal=1;startSize=30;horizontalStack=0;rounded=1;fontSize=14;fontStyle=0;strokeWidth=2;resizeParent=0;resizeLast=1;shadow=0;dashed=0;align=center;" parent="1" vertex="1">
                    <mxGeometry x="360" y="105" width="220" height="140" as="geometry"/>
                </mxCell>
                <mxCell id="XL9Mon4BR4V7tsD-f4nl-2" value="+id - ID&#10;+mealType - enum {string}&#10;+cookTime - enum {string}&#10;+ingeredientsList - [ingredentIDs]&#10;+cusienType - enum {string}&#10;+description - string" style="align=left;strokeColor=none;fillColor=none;spacingLeft=4;fontSize=12;verticalAlign=top;resizable=0;rotatable=0;part=1;" parent="XL9Mon4BR4V7tsD-f4nl-1" vertex="1">
                    <mxGeometry y="30" width="220" height="110" as="geometry"/>
                </mxCell>
                <mxCell id="XL9Mon4BR4V7tsD-f4nl-3" value="User" style="swimlane;childLayout=stackLayout;horizontal=1;startSize=30;horizontalStack=0;rounded=1;fontSize=14;fontStyle=0;strokeWidth=2;resizeParent=0;resizeLast=1;shadow=0;dashed=0;align=center;" parent="1" vertex="1">
                    <mxGeometry x="70" y="100" width="160" height="150" as="geometry"/>
                </mxCell>
                <mxCell id="XL9Mon4BR4V7tsD-f4nl-4" value="+id - ID&#10;+name - String&#10;+googleId - String &#10;+email - String&#10;+avatar -  String&#10;+cookbook - [recipeIDs]" style="align=left;strokeColor=none;fillColor=none;spacingLeft=4;fontSize=12;verticalAlign=top;resizable=0;rotatable=0;part=1;" parent="XL9Mon4BR4V7tsD-f4nl-3" vertex="1">
                    <mxGeometry y="30" width="160" height="120" as="geometry"/>
                </mxCell>
                <mxCell id="XL9Mon4BR4V7tsD-f4nl-5" value="Ingredient" style="swimlane;childLayout=stackLayout;horizontal=1;startSize=30;horizontalStack=0;rounded=1;fontSize=14;fontStyle=0;strokeWidth=2;resizeParent=0;resizeLast=1;shadow=0;dashed=0;align=center;" parent="1" vertex="1">
                    <mxGeometry x="375" y="380" width="190" height="120" as="geometry"/>
                </mxCell>
                <mxCell id="XL9Mon4BR4V7tsD-f4nl-6" value="+ID - ID&#10;+foodCategory - enum {string}&#10;" style="align=left;strokeColor=none;fillColor=none;spacingLeft=4;fontSize=12;verticalAlign=top;resizable=0;rotatable=0;part=1;" parent="XL9Mon4BR4V7tsD-f4nl-5" vertex="1">
                    <mxGeometry y="30" width="190" height="90" as="geometry"/>
                </mxCell>
                <mxCell id="XL9Mon4BR4V7tsD-f4nl-7" value="" style="edgeStyle=entityRelationEdgeStyle;fontSize=12;html=1;endArrow=ERzeroToMany;startArrow=ERzeroToOne;exitX=1;exitY=0.5;exitDx=0;exitDy=0;entryX=0;entryY=0.5;entryDx=0;entryDy=0;" parent="1" source="XL9Mon4BR4V7tsD-f4nl-4" target="XL9Mon4BR4V7tsD-f4nl-2" edge="1">
                    <mxGeometry width="100" height="100" relative="1" as="geometry">
                        <mxPoint x="230" y="350" as="sourcePoint"/>
                        <mxPoint x="330" y="250" as="targetPoint"/>
                    </mxGeometry>
                </mxCell>
                <mxCell id="XL9Mon4BR4V7tsD-f4nl-8" value="" style="edgeStyle=entityRelationEdgeStyle;fontSize=12;html=1;endArrow=ERoneToMany;startArrow=ERoneToMany;" parent="1" source="XL9Mon4BR4V7tsD-f4nl-6" target="XL9Mon4BR4V7tsD-f4nl-2" edge="1">
                    <mxGeometry width="100" height="100" relative="1" as="geometry">
                        <mxPoint x="230" y="350" as="sourcePoint"/>
                        <mxPoint x="330" y="250" as="targetPoint"/>
                    </mxGeometry>
                </mxCell>
            </root>
        </mxGraphModel>
    </diagram>
    <diagram name="Landing/HomePage" id="2cc2dc42-3aac-f2a9-1cec-7a8b7cbee084">
        <mxGraphModel dx="1386" dy="787" grid="1" gridSize="10" guides="1" tooltips="1" connect="1" arrows="1" fold="1" page="1" pageScale="1" pageWidth="1100" pageHeight="850" background="none" math="0" shadow="0">
            <root>
                <mxCell id="0"/>
                <mxCell id="1" parent="0"/>
                <mxCell id="7026571954dc6520-1" value="" style="strokeWidth=1;shadow=0;dashed=0;align=center;html=1;shape=mxgraph.mockup.containers.browserWindow;rSize=0;strokeColor=#666666;mainText=,;recursiveResize=0;rounded=0;labelBackgroundColor=none;fontFamily=Verdana;fontSize=12" parent="1" vertex="1">
                    <mxGeometry x="40" y="90" width="1050" height="820" as="geometry"/>
                </mxCell>
                <mxCell id="7026571954dc6520-2" value="Page 1" style="strokeWidth=1;shadow=0;dashed=0;align=center;html=1;shape=mxgraph.mockup.containers.anchor;fontSize=17;fontColor=#666666;align=left;" parent="7026571954dc6520-1" vertex="1">
                    <mxGeometry x="60" y="12" width="110" height="26" as="geometry"/>
                </mxCell>
                <mxCell id="7026571954dc6520-3" value="https://www.default.com" style="strokeWidth=1;shadow=0;dashed=0;align=center;html=1;shape=mxgraph.mockup.containers.anchor;rSize=0;fontSize=17;fontColor=#666666;align=left;" parent="7026571954dc6520-1" vertex="1">
                    <mxGeometry x="130" y="60" width="250" height="26" as="geometry"/>
                </mxCell>
                <mxCell id="7026571954dc6520-4" value="Website Name" style="text;html=1;points=[];align=center;verticalAlign=top;spacingTop=-4;fontSize=30;fontFamily=Verdana" parent="7026571954dc6520-1" vertex="1">
                    <mxGeometry x="355" y="140" width="340" height="50" as="geometry"/>
                </mxCell>
                <mxCell id="7026571954dc6520-16" value="welcome and description" style="text;html=1;points=[];align=center;verticalAlign=top;spacingTop=-4;fontSize=15;fontFamily=Verdana" parent="7026571954dc6520-1" vertex="1">
                    <mxGeometry x="380" y="300" width="290" height="30" as="geometry"/>
                </mxCell>
                <mxCell id="7026571954dc6520-17" value="Lorem ipsum dolor sit amet, consectetur adipisicing elit, sed do eiusmod tempor incididunt ut labore et dolore magna aliqua. Ut enim ad minim veniam, quis nostrud exercitation ullamco laboris nisi ut aliquip ex ea commodo consequat. Duis aute irure dolor in reprehenderit in voluptate velit esse cillum dolore eu fugiat nulla pariatur. Excepteur sint occaecat cupidatat non proident, sunt in culpa qui officia deserunt mollit anim id est laborum.&#10;Sed ut perspiciatis unde omnis iste natus error sit voluptatem accusantium doloremque laudantium, totam rem aperiam, eaque ipsa quae ab illo inventore veritatis et quasi architecto beatae vitae dicta sunt explicabo. Nemo enim ipsam voluptatem quia voluptas sit aspernatur aut odit aut fugit, sed quia consequuntur magni dolores eos qui ratione voluptatem sequi nesciunt. Neque porro quisquam est, qui dolorem ipsum quia dolor sit amet, consectetur, adipisci velit, sed quia non numquam eius modi tempora incidunt ut labore et dolore magnam aliquam quaerat voluptatem. Ut enim ad minima veniam, quis nostrum exercitationem ullam corporis suscipit laboriosam, nisi ut aliquid ex ea commodi consequatur? Quis autem vel eum iure reprehenderit qui in ea voluptate velit esse quam nihil molestiae consequatur, vel illum qui dolorem eum fugiat quo voluptas nulla pariatur?" style="text;spacingTop=-5;whiteSpace=wrap;html=1;align=left;fontSize=12;fontFamily=Helvetica;fillColor=none;strokeColor=none;rounded=0;shadow=1;labelBackgroundColor=none;" parent="7026571954dc6520-1" vertex="1">
                    <mxGeometry x="235" y="370" width="570" height="240" as="geometry"/>
                </mxCell>
                <mxCell id="7026571954dc6520-18" value="log In Button" style="strokeWidth=1;shadow=0;dashed=0;align=center;html=1;shape=mxgraph.mockup.buttons.button;strokeColor=#666666;mainText=;buttonStyle=round;fontSize=17;fontStyle=0;fillColor=none;whiteSpace=wrap;rounded=0;labelBackgroundColor=none;" parent="7026571954dc6520-1" vertex="1">
                    <mxGeometry x="840" y="140" width="190" height="30" as="geometry"/>
                </mxCell>
                <mxCell id="7026571954dc6520-19" value="All Recipes" style="strokeWidth=1;shadow=0;dashed=0;align=center;html=1;shape=mxgraph.mockup.buttons.button;strokeColor=#666666;mainText=;buttonStyle=round;fontSize=17;fontStyle=0;fillColor=none;whiteSpace=wrap;rounded=0;labelBackgroundColor=none;" parent="7026571954dc6520-1" vertex="1">
                    <mxGeometry x="20" y="140" width="190" height="30" as="geometry"/>
                </mxCell>
                <mxCell id="_Jt4-asLAhdlNc4CDcsc-2" value="" style="verticalLabelPosition=bottom;shadow=0;dashed=0;align=center;html=1;verticalAlign=top;strokeWidth=1;shape=mxgraph.mockup.markup.line;strokeColor=#999999;rounded=0;labelBackgroundColor=none;fillColor=#ffffff;fontFamily=Verdana;fontSize=12;fontColor=#000000;" parent="7026571954dc6520-1" vertex="1">
                    <mxGeometry y="260" width="1050" height="20" as="geometry"/>
                </mxCell>
            </root>
        </mxGraphModel>
    </diagram>
    <diagram id="TQZooUPN3WbYWnMyg2MH" name="All-Recipes-in-Database-View">
        <mxGraphModel dx="1386" dy="787" grid="1" gridSize="10" guides="1" tooltips="1" connect="1" arrows="1" fold="1" page="1" pageScale="1" pageWidth="850" pageHeight="1100" math="0" shadow="0">
            <root>
                <mxCell id="0"/>
                <mxCell id="1" parent="0"/>
                <mxCell id="S5friPIN99UMN8xI0pT8-1" value="" style="strokeWidth=1;shadow=0;dashed=0;align=center;html=1;shape=mxgraph.mockup.containers.browserWindow;rSize=0;strokeColor=#666666;mainText=,;recursiveResize=0;rounded=0;labelBackgroundColor=none;fontFamily=Verdana;fontSize=12" parent="1" vertex="1">
                    <mxGeometry x="20" y="20" width="1050" height="820" as="geometry"/>
                </mxCell>
                <mxCell id="S5friPIN99UMN8xI0pT8-2" value="Page 1" style="strokeWidth=1;shadow=0;dashed=0;align=center;html=1;shape=mxgraph.mockup.containers.anchor;fontSize=17;fontColor=#666666;align=left;" parent="S5friPIN99UMN8xI0pT8-1" vertex="1">
                    <mxGeometry x="60" y="12" width="110" height="26" as="geometry"/>
                </mxCell>
                <mxCell id="S5friPIN99UMN8xI0pT8-3" value="https://www.default.com" style="strokeWidth=1;shadow=0;dashed=0;align=center;html=1;shape=mxgraph.mockup.containers.anchor;rSize=0;fontSize=17;fontColor=#666666;align=left;" parent="S5friPIN99UMN8xI0pT8-1" vertex="1">
                    <mxGeometry x="130" y="60" width="250" height="26" as="geometry"/>
                </mxCell>
                <mxCell id="S5friPIN99UMN8xI0pT8-4" value="Website Name" style="text;html=1;points=[];align=left;verticalAlign=top;spacingTop=-4;fontSize=30;fontFamily=Verdana" parent="S5friPIN99UMN8xI0pT8-1" vertex="1">
                    <mxGeometry x="30" y="140" width="340" height="50" as="geometry"/>
                </mxCell>
                <mxCell id="S5friPIN99UMN8xI0pT8-5" value="Section 1" style="text;html=1;points=[];align=left;verticalAlign=top;spacingTop=-4;fontSize=15;fontFamily=Verdana" parent="S5friPIN99UMN8xI0pT8-1" vertex="1">
                    <mxGeometry x="540" y="140" width="170" height="30" as="geometry"/>
                </mxCell>
                <mxCell id="S5friPIN99UMN8xI0pT8-6" value="Some default text to fill some space, and&amp;nbsp;&lt;span&gt;something more so there is more text&lt;/span&gt;" style="text;html=1;points=[];align=left;verticalAlign=top;spacingTop=-4;fontSize=12;fontFamily=Verdana;whiteSpace=wrap;" parent="S5friPIN99UMN8xI0pT8-1" vertex="1">
                    <mxGeometry x="540" y="170" width="240" height="40" as="geometry"/>
                </mxCell>
                <mxCell id="S5friPIN99UMN8xI0pT8-7" value="Section 2" style="text;html=1;points=[];align=left;verticalAlign=top;spacingTop=-4;fontSize=15;fontFamily=Verdana" parent="S5friPIN99UMN8xI0pT8-1" vertex="1">
                    <mxGeometry x="540" y="230" width="170" height="30" as="geometry"/>
                </mxCell>
                <mxCell id="S5friPIN99UMN8xI0pT8-8" value="Some default text to fill some space, and&amp;nbsp;&lt;span&gt;something more so there is more text&lt;/span&gt;" style="text;html=1;points=[];align=left;verticalAlign=top;spacingTop=-4;fontSize=12;fontFamily=Verdana;whiteSpace=wrap;" parent="S5friPIN99UMN8xI0pT8-1" vertex="1">
                    <mxGeometry x="540" y="260" width="240" height="40" as="geometry"/>
                </mxCell>
                <mxCell id="S5friPIN99UMN8xI0pT8-9" value="Section 1" style="text;html=1;points=[];align=left;verticalAlign=top;spacingTop=-4;fontSize=15;fontFamily=Verdana" parent="S5friPIN99UMN8xI0pT8-1" vertex="1">
                    <mxGeometry x="800" y="140" width="170" height="30" as="geometry"/>
                </mxCell>
                <mxCell id="S5friPIN99UMN8xI0pT8-10" value="Some default text to fill some space, and&amp;nbsp;&lt;span&gt;something more so there is more text&lt;/span&gt;" style="text;html=1;points=[];align=left;verticalAlign=top;spacingTop=-4;fontSize=12;fontFamily=Verdana;whiteSpace=wrap;" parent="S5friPIN99UMN8xI0pT8-1" vertex="1">
                    <mxGeometry x="800" y="170" width="240" height="40" as="geometry"/>
                </mxCell>
                <mxCell id="S5friPIN99UMN8xI0pT8-11" value="Search" style="text;html=1;points=[];align=left;verticalAlign=top;spacingTop=-4;fontSize=15;fontFamily=Verdana" parent="S5friPIN99UMN8xI0pT8-1" vertex="1">
                    <mxGeometry x="800" y="230" width="170" height="30" as="geometry"/>
                </mxCell>
                <mxCell id="S5friPIN99UMN8xI0pT8-12" value="Search" style="strokeWidth=1;shadow=0;dashed=0;align=center;html=1;shape=mxgraph.mockup.forms.searchBox;strokeColor=#999999;mainText=;strokeColor2=#008cff;fontColor=#666666;fontSize=17;align=left;spacingLeft=3;rounded=0;labelBackgroundColor=none;" parent="S5friPIN99UMN8xI0pT8-1" vertex="1">
                    <mxGeometry x="800" y="260" width="220" height="30" as="geometry"/>
                </mxCell>
                <mxCell id="S5friPIN99UMN8xI0pT8-13" value="" style="verticalLabelPosition=bottom;shadow=0;dashed=0;align=center;html=1;verticalAlign=top;strokeWidth=1;shape=mxgraph.mockup.markup.line;strokeColor=#999999;rounded=0;labelBackgroundColor=none;fillColor=#ffffff;fontFamily=Verdana;fontSize=12;fontColor=#000000;" parent="S5friPIN99UMN8xI0pT8-1" vertex="1">
                    <mxGeometry y="310" width="1050" height="20" as="geometry"/>
                </mxCell>
                <mxCell id="S5friPIN99UMN8xI0pT8-14" value="Title 1" style="text;html=1;points=[];align=left;verticalAlign=top;spacingTop=-4;fontSize=15;fontFamily=Verdana" parent="S5friPIN99UMN8xI0pT8-1" vertex="1">
                    <mxGeometry x="20" y="330" width="170" height="30" as="geometry"/>
                </mxCell>
                <mxCell id="S5friPIN99UMN8xI0pT8-15" value="Lorem ipsum dolor sit amet, consectetur adipisicing elit, sed do eiusmod tempor incididunt ut labore et dolore magna aliqua. Ut enim ad minim veniam, quis nostrud exercitation ullamco laboris nisi ut aliquip ex ea commodo consequat. Duis aute irure dolor in reprehenderit in voluptate velit esse cillum dolore eu fugiat nulla pariatur. Excepteur sint occaecat cupidatat non proident, sunt in culpa qui officia deserunt mollit anim id est laborum.&#10;Sed ut perspiciatis unde omnis iste natus error sit voluptatem accusantium doloremque laudantium, totam rem aperiam, eaque ipsa quae ab illo inventore veritatis et quasi architecto beatae vitae dicta sunt explicabo. Nemo enim ipsam voluptatem quia voluptas sit aspernatur aut odit aut fugit, sed quia consequuntur magni dolores eos qui ratione voluptatem sequi nesciunt. Neque porro quisquam est, qui dolorem ipsum quia dolor sit amet, consectetur, adipisci velit, sed quia non numquam eius modi tempora incidunt ut labore et dolore magnam aliquam quaerat voluptatem. Ut enim ad minima veniam, quis nostrum exercitationem ullam corporis suscipit laboriosam, nisi ut aliquid ex ea commodi consequatur? Quis autem vel eum iure reprehenderit qui in ea voluptate velit esse quam nihil molestiae consequatur, vel illum qui dolorem eum fugiat quo voluptas nulla pariatur?" style="text;spacingTop=-5;whiteSpace=wrap;html=1;align=left;fontSize=12;fontFamily=Helvetica;fillColor=none;strokeColor=none;rounded=0;shadow=1;labelBackgroundColor=none;" parent="S5friPIN99UMN8xI0pT8-1" vertex="1">
                    <mxGeometry x="20" y="370" width="570" height="240" as="geometry"/>
                </mxCell>
                <mxCell id="S5friPIN99UMN8xI0pT8-16" value="Button 1" style="strokeWidth=1;shadow=0;dashed=0;align=center;html=1;shape=mxgraph.mockup.buttons.button;strokeColor=#666666;mainText=;buttonStyle=round;fontSize=17;fontStyle=0;fillColor=none;whiteSpace=wrap;rounded=0;labelBackgroundColor=none;" parent="S5friPIN99UMN8xI0pT8-1" vertex="1">
                    <mxGeometry x="790" y="360" width="190" height="30" as="geometry"/>
                </mxCell>
                <mxCell id="S5friPIN99UMN8xI0pT8-17" value="Button 2" style="strokeWidth=1;shadow=0;dashed=0;align=center;html=1;shape=mxgraph.mockup.buttons.button;strokeColor=#666666;mainText=;buttonStyle=round;fontSize=17;fontStyle=0;fillColor=none;whiteSpace=wrap;rounded=0;labelBackgroundColor=none;" parent="S5friPIN99UMN8xI0pT8-1" vertex="1">
                    <mxGeometry x="790" y="405" width="190" height="30" as="geometry"/>
                </mxCell>
                <mxCell id="S5friPIN99UMN8xI0pT8-18" value="Some default text to fill some space, and&amp;nbsp;&lt;span&gt;something more so there is more text&lt;/span&gt;" style="text;html=1;points=[];align=left;verticalAlign=top;spacingTop=-4;fontSize=12;fontFamily=Verdana;whiteSpace=wrap;" parent="S5friPIN99UMN8xI0pT8-1" vertex="1">
                    <mxGeometry x="790" y="450" width="240" height="40" as="geometry"/>
                </mxCell>
                <mxCell id="S5friPIN99UMN8xI0pT8-19" value="" style="verticalLabelPosition=bottom;shadow=0;dashed=0;align=center;html=1;verticalAlign=top;strokeWidth=1;shape=mxgraph.mockup.markup.line;strokeColor=#999999;rounded=0;labelBackgroundColor=none;fillColor=#ffffff;fontFamily=Verdana;fontSize=12;fontColor=#000000;" parent="S5friPIN99UMN8xI0pT8-1" vertex="1">
                    <mxGeometry y="580" width="1050" height="20" as="geometry"/>
                </mxCell>
                <mxCell id="S5friPIN99UMN8xI0pT8-20" value="" style="verticalLabelPosition=bottom;shadow=0;dashed=0;align=center;html=1;verticalAlign=top;strokeWidth=1;shape=mxgraph.mockup.graphics.simpleIcon;strokeColor=#999999;fillColor=#ffffff;rounded=0;labelBackgroundColor=none;fontFamily=Verdana;fontSize=12;fontColor=#000000;" parent="S5friPIN99UMN8xI0pT8-1" vertex="1">
                    <mxGeometry x="15" y="610" width="200" height="200" as="geometry"/>
                </mxCell>
                <mxCell id="S5friPIN99UMN8xI0pT8-21" value="Title 2" style="text;html=1;points=[];align=left;verticalAlign=top;spacingTop=-4;fontSize=15;fontFamily=Verdana" parent="S5friPIN99UMN8xI0pT8-1" vertex="1">
                    <mxGeometry x="280" y="610" width="170" height="30" as="geometry"/>
                </mxCell>
                <mxCell id="S5friPIN99UMN8xI0pT8-22" value="Title 3" style="text;html=1;points=[];align=left;verticalAlign=top;spacingTop=-4;fontSize=15;fontFamily=Verdana" parent="S5friPIN99UMN8xI0pT8-1" vertex="1">
                    <mxGeometry x="780" y="610" width="170" height="30" as="geometry"/>
                </mxCell>
                <mxCell id="S5friPIN99UMN8xI0pT8-23" value="&lt;div style=&quot;text-align: justify&quot;&gt;&lt;span&gt;Some default text to fill some space, and&amp;nbsp;&lt;/span&gt;&lt;span&gt;something more so there is more text&lt;/span&gt;&lt;/div&gt;&lt;div style=&quot;text-align: justify&quot;&gt;&lt;hr id=&quot;null&quot; style=&quot;text-align: justify&quot;&gt;&lt;span&gt;&lt;div style=&quot;text-align: justify&quot;&gt;&lt;span&gt;Some default text to fill some space, and&amp;nbsp;&lt;/span&gt;&lt;span&gt;something more so there is more text&lt;/span&gt;&lt;/div&gt;&lt;/span&gt;&lt;/div&gt;&lt;hr id=&quot;null&quot; style=&quot;text-align: justify&quot;&gt;&lt;span&gt;&lt;div style=&quot;text-align: justify&quot;&gt;&lt;span&gt;Some default text to fill some space, and&amp;nbsp;&lt;/span&gt;&lt;span&gt;something more so there is more text&lt;/span&gt;&lt;/div&gt;&lt;/span&gt;&lt;hr id=&quot;null&quot; style=&quot;text-align: justify&quot;&gt;&lt;span&gt;&lt;div style=&quot;text-align: justify&quot;&gt;&lt;span&gt;Some default text to fill some space, and&amp;nbsp;&lt;/span&gt;&lt;span&gt;something more so there is more text&lt;/span&gt;&lt;/div&gt;&lt;/span&gt;&lt;hr id=&quot;null&quot; style=&quot;text-align: left&quot;&gt;" style="whiteSpace=wrap;html=1;rounded=0;shadow=0;labelBackgroundColor=none;strokeWidth=1;fontFamily=Verdana;fontSize=12;align=center;verticalAlign=top;" parent="S5friPIN99UMN8xI0pT8-1" vertex="1">
                    <mxGeometry x="780" y="640" width="260" height="170" as="geometry"/>
                </mxCell>
                <mxCell id="S5friPIN99UMN8xI0pT8-24" value="Some default text to fill some space, and&amp;nbsp;&lt;span&gt;something more so there is more text&lt;/span&gt;" style="text;html=1;points=[];align=left;verticalAlign=top;spacingTop=-4;fontSize=12;fontFamily=Verdana;whiteSpace=wrap;" parent="S5friPIN99UMN8xI0pT8-1" vertex="1">
                    <mxGeometry x="270" y="650" width="470" height="40" as="geometry"/>
                </mxCell>
                <mxCell id="mci6CXzs_zetFUq2I035-2" value="log In Button" style="strokeWidth=1;shadow=0;dashed=0;align=center;html=1;shape=mxgraph.mockup.buttons.button;strokeColor=#666666;mainText=;buttonStyle=round;fontSize=17;fontStyle=0;fillColor=none;whiteSpace=wrap;rounded=0;labelBackgroundColor=none;" vertex="1" parent="S5friPIN99UMN8xI0pT8-1">
                    <mxGeometry x="310" y="140" width="190" height="30" as="geometry"/>
                </mxCell>
                <mxCell id="S5friPIN99UMN8xI0pT8-25" value="Lorem ipsum dolor sit amet, consectetur adipisicing elit, sed do eiusmod tempor incididunt ut labore et dolore magna aliqua. Ut enim ad minim veniam, quis nostrud exercitation ullamco laboris nisi ut aliquip ex ea commodo consequat. Duis aute irure dolor in reprehenderit in voluptate velit esse cillum dolore eu fugiat nulla pariatur. Excepteur sint occaecat cupidatat non proident, sunt in culpa qui officia deserunt mollit anim id est laborum.&lt;br&gt;Sed ut perspiciatis unde omnis iste natus error sit voluptatem accusantium doloremque laudantium, totam rem aperiam, eaque ipsa quae ab illo inventore veritatis et quasi architecto beatae vitae dicta sunt explicabo.&amp;nbsp;" style="text;spacingTop=-5;whiteSpace=wrap;html=1;align=left;fontSize=12;fontFamily=Helvetica;fillColor=none;strokeColor=none;rounded=0;shadow=1;labelBackgroundColor=none;" parent="1" vertex="1">
                    <mxGeometry x="290" y="705" width="490" height="125" as="geometry"/>
                </mxCell>
            </root>
        </mxGraphModel>
    </diagram>
    <diagram id="c1mErb0dEclYy5-DHInF" name="Cookbook-View">
        <mxGraphModel dx="1386" dy="787" grid="1" gridSize="10" guides="1" tooltips="1" connect="1" arrows="1" fold="1" page="1" pageScale="1" pageWidth="850" pageHeight="1100" math="0" shadow="0">
            <root>
                <mxCell id="0"/>
                <mxCell id="1" parent="0"/>
                <mxCell id="5rU4Cq0aFKMe5rDrFGB1-1" value="" style="strokeWidth=1;shadow=0;dashed=0;align=center;html=1;shape=mxgraph.mockup.containers.browserWindow;rSize=0;strokeColor=#666666;mainText=,;recursiveResize=0;rounded=0;labelBackgroundColor=none;fontFamily=Verdana;fontSize=12" parent="1" vertex="1">
                    <mxGeometry x="30" y="30" width="1050" height="820" as="geometry"/>
                </mxCell>
                <mxCell id="5rU4Cq0aFKMe5rDrFGB1-2" value="Page 1" style="strokeWidth=1;shadow=0;dashed=0;align=center;html=1;shape=mxgraph.mockup.containers.anchor;fontSize=17;fontColor=#666666;align=left;" parent="5rU4Cq0aFKMe5rDrFGB1-1" vertex="1">
                    <mxGeometry x="60" y="12" width="110" height="26" as="geometry"/>
                </mxCell>
                <mxCell id="5rU4Cq0aFKMe5rDrFGB1-3" value="https://www.default.com" style="strokeWidth=1;shadow=0;dashed=0;align=center;html=1;shape=mxgraph.mockup.containers.anchor;rSize=0;fontSize=17;fontColor=#666666;align=left;" parent="5rU4Cq0aFKMe5rDrFGB1-1" vertex="1">
                    <mxGeometry x="130" y="60" width="250" height="26" as="geometry"/>
                </mxCell>
                <mxCell id="5rU4Cq0aFKMe5rDrFGB1-4" value="&lt;p style=&quot;line-height: 1.2; margin-top: 0pt; margin-bottom: 0pt;&quot; dir=&quot;ltr&quot;&gt;&lt;/p&gt;&lt;div&gt;&lt;/div&gt;&lt;span style=&quot;font-family: Economica, sans-serif; background-color: transparent; font-variant-numeric: normal; font-variant-east-asian: normal; font-variant-alternates: normal; font-variant-position: normal; vertical-align: baseline;&quot;&gt;&lt;font style=&quot;font-size: 30px;&quot;&gt;Cookbook View&lt;/font&gt;&lt;/span&gt;&lt;p&gt;&lt;/p&gt;" style="text;html=1;points=[];align=center;verticalAlign=top;spacingTop=-4;fontSize=30;fontFamily=Verdana" parent="5rU4Cq0aFKMe5rDrFGB1-1" vertex="1">
                    <mxGeometry x="355" y="140" width="340" height="50" as="geometry"/>
                </mxCell>
                <mxCell id="5rU4Cq0aFKMe5rDrFGB1-14" value="Recipe&amp;nbsp;1" style="text;html=1;points=[];align=left;verticalAlign=top;spacingTop=-4;fontSize=15;fontFamily=Verdana" parent="5rU4Cq0aFKMe5rDrFGB1-1" vertex="1">
                    <mxGeometry x="300" y="290" width="170" height="30" as="geometry"/>
                </mxCell>
                <mxCell id="5rU4Cq0aFKMe5rDrFGB1-16" value="Add&amp;nbsp;Recipe" style="strokeWidth=1;shadow=0;dashed=0;align=center;html=1;shape=mxgraph.mockup.buttons.button;strokeColor=#666666;mainText=;buttonStyle=round;fontSize=17;fontStyle=0;fillColor=none;whiteSpace=wrap;rounded=0;labelBackgroundColor=none;" parent="5rU4Cq0aFKMe5rDrFGB1-1" vertex="1">
                    <mxGeometry x="830" y="130" width="190" height="30" as="geometry"/>
                </mxCell>
                <mxCell id="5rU4Cq0aFKMe5rDrFGB1-17" value="All&amp;nbsp;Recipes" style="strokeWidth=1;shadow=0;dashed=0;align=center;html=1;shape=mxgraph.mockup.buttons.button;strokeColor=#666666;mainText=;buttonStyle=round;fontSize=17;fontStyle=0;fillColor=none;whiteSpace=wrap;rounded=0;labelBackgroundColor=none;" parent="5rU4Cq0aFKMe5rDrFGB1-1" vertex="1">
                    <mxGeometry x="20" y="130" width="190" height="30" as="geometry"/>
                </mxCell>
                <mxCell id="5rU4Cq0aFKMe5rDrFGB1-18" value="Recipe info here" style="text;html=1;points=[];align=left;verticalAlign=top;spacingTop=-4;fontSize=12;fontFamily=Verdana;whiteSpace=wrap;" parent="5rU4Cq0aFKMe5rDrFGB1-1" vertex="1">
                    <mxGeometry x="470" y="290" width="240" height="40" as="geometry"/>
                </mxCell>
                <mxCell id="5rU4Cq0aFKMe5rDrFGB1-19" value="" style="verticalLabelPosition=bottom;shadow=0;dashed=0;align=center;html=1;verticalAlign=top;strokeWidth=1;shape=mxgraph.mockup.markup.line;strokeColor=#999999;rounded=0;labelBackgroundColor=none;fillColor=#ffffff;fontFamily=Verdana;fontSize=12;fontColor=#000000;" parent="5rU4Cq0aFKMe5rDrFGB1-1" vertex="1">
                    <mxGeometry y="220" width="1050" height="20" as="geometry"/>
                </mxCell>
                <mxCell id="1rqKVi71JYNt9thPtVox-1" value="Recipe 2" style="text;html=1;points=[];align=left;verticalAlign=top;spacingTop=-4;fontSize=15;fontFamily=Verdana" parent="5rU4Cq0aFKMe5rDrFGB1-1" vertex="1">
                    <mxGeometry x="300" y="325" width="170" height="30" as="geometry"/>
                </mxCell>
                <mxCell id="1rqKVi71JYNt9thPtVox-2" value="Recipe info here" style="text;html=1;points=[];align=left;verticalAlign=top;spacingTop=-4;fontSize=12;fontFamily=Verdana;whiteSpace=wrap;" parent="5rU4Cq0aFKMe5rDrFGB1-1" vertex="1">
                    <mxGeometry x="470" y="325" width="240" height="40" as="geometry"/>
                </mxCell>
                <mxCell id="1rqKVi71JYNt9thPtVox-3" value="Recipe 3" style="text;html=1;points=[];align=left;verticalAlign=top;spacingTop=-4;fontSize=15;fontFamily=Verdana" parent="5rU4Cq0aFKMe5rDrFGB1-1" vertex="1">
                    <mxGeometry x="300" y="360" width="170" height="30" as="geometry"/>
                </mxCell>
                <mxCell id="1rqKVi71JYNt9thPtVox-4" value="Recipe info here" style="text;html=1;points=[];align=left;verticalAlign=top;spacingTop=-4;fontSize=12;fontFamily=Verdana;whiteSpace=wrap;" parent="5rU4Cq0aFKMe5rDrFGB1-1" vertex="1">
                    <mxGeometry x="470" y="360" width="240" height="40" as="geometry"/>
                </mxCell>
            </root>
        </mxGraphModel>
    </diagram>
    <diagram name="Recipe-View" id="OqOTbTWVp7j4RrQxYmrK">
        <mxGraphModel dx="1386" dy="787" grid="1" gridSize="10" guides="1" tooltips="1" connect="1" arrows="1" fold="1" page="1" pageScale="1" pageWidth="850" pageHeight="1100" math="0" shadow="0">
            <root>
                <mxCell id="kslqDDedWuG771UUgaw6-0"/>
                <mxCell id="kslqDDedWuG771UUgaw6-1" parent="kslqDDedWuG771UUgaw6-0"/>
                <mxCell id="kslqDDedWuG771UUgaw6-2" value="" style="strokeWidth=1;shadow=0;dashed=0;align=center;html=1;shape=mxgraph.mockup.containers.browserWindow;rSize=0;strokeColor=#666666;mainText=,;recursiveResize=0;rounded=0;labelBackgroundColor=none;fontFamily=Verdana;fontSize=12" parent="kslqDDedWuG771UUgaw6-1" vertex="1">
                    <mxGeometry x="30" y="30" width="1050" height="820" as="geometry"/>
                </mxCell>
                <mxCell id="kslqDDedWuG771UUgaw6-3" value="Page 1" style="strokeWidth=1;shadow=0;dashed=0;align=center;html=1;shape=mxgraph.mockup.containers.anchor;fontSize=17;fontColor=#666666;align=left;" parent="kslqDDedWuG771UUgaw6-2" vertex="1">
                    <mxGeometry x="60" y="12" width="110" height="26" as="geometry"/>
                </mxCell>
                <mxCell id="kslqDDedWuG771UUgaw6-4" value="https://www.default.com" style="strokeWidth=1;shadow=0;dashed=0;align=center;html=1;shape=mxgraph.mockup.containers.anchor;rSize=0;fontSize=17;fontColor=#666666;align=left;" parent="kslqDDedWuG771UUgaw6-2" vertex="1">
                    <mxGeometry x="130" y="60" width="250" height="26" as="geometry"/>
                </mxCell>
                <mxCell id="kslqDDedWuG771UUgaw6-5" value="&lt;p style=&quot;line-height: 1.2; margin-top: 0pt; margin-bottom: 0pt;&quot; dir=&quot;ltr&quot;&gt;&lt;/p&gt;&lt;div&gt;&lt;/div&gt;&lt;span style=&quot;font-family: Economica, sans-serif; background-color: transparent; font-variant-numeric: normal; font-variant-east-asian: normal; font-variant-alternates: normal; font-variant-position: normal; vertical-align: baseline;&quot;&gt;&lt;font style=&quot;font-size: 30px;&quot;&gt;Recipe&amp;nbsp;View&lt;/font&gt;&lt;/span&gt;&lt;p&gt;&lt;/p&gt;" style="text;html=1;points=[];align=center;verticalAlign=top;spacingTop=-4;fontSize=30;fontFamily=Verdana" parent="kslqDDedWuG771UUgaw6-2" vertex="1">
                    <mxGeometry x="355" y="140" width="340" height="50" as="geometry"/>
                </mxCell>
                <mxCell id="kslqDDedWuG771UUgaw6-6" value="&lt;span id=&quot;docs-internal-guid-5d654f29-7fff-60c8-33e5-b82caca4bfd6&quot;&gt;&lt;/span&gt;&lt;span id=&quot;docs-internal-guid-5d654f29-7fff-60c8-33e5-b82caca4bfd6&quot;&gt;&lt;/span&gt;&lt;span id=&quot;docs-internal-guid-5d654f29-7fff-60c8-33e5-b82caca4bfd6&quot;&gt;&lt;/span&gt;&lt;span id=&quot;docs-internal-guid-5d654f29-7fff-60c8-33e5-b82caca4bfd6&quot;&gt;&lt;/span&gt;&lt;span id=&quot;docs-internal-guid-5d654f29-7fff-60c8-33e5-b82caca4bfd6&quot;&gt;&lt;/span&gt;Ingredient 1" style="text;html=1;points=[];align=left;verticalAlign=top;spacingTop=-4;fontSize=15;fontFamily=Verdana" parent="kslqDDedWuG771UUgaw6-2" vertex="1">
                    <mxGeometry x="320" y="310" width="170" height="30" as="geometry"/>
                </mxCell>
                <mxCell id="kslqDDedWuG771UUgaw6-7" value="Add&amp;nbsp;Recipe" style="strokeWidth=1;shadow=0;dashed=0;align=center;html=1;shape=mxgraph.mockup.buttons.button;strokeColor=#666666;mainText=;buttonStyle=round;fontSize=17;fontStyle=0;fillColor=none;whiteSpace=wrap;rounded=0;labelBackgroundColor=none;" parent="kslqDDedWuG771UUgaw6-2" vertex="1">
                    <mxGeometry x="830" y="130" width="190" height="30" as="geometry"/>
                </mxCell>
                <mxCell id="kslqDDedWuG771UUgaw6-8" value="All&amp;nbsp;Recipes" style="strokeWidth=1;shadow=0;dashed=0;align=center;html=1;shape=mxgraph.mockup.buttons.button;strokeColor=#666666;mainText=;buttonStyle=round;fontSize=17;fontStyle=0;fillColor=none;whiteSpace=wrap;rounded=0;labelBackgroundColor=none;" parent="kslqDDedWuG771UUgaw6-2" vertex="1">
                    <mxGeometry x="20" y="130" width="190" height="30" as="geometry"/>
                </mxCell>
                <mxCell id="kslqDDedWuG771UUgaw6-9" value="Ingredient&amp;nbsp;info here" style="text;html=1;points=[];align=left;verticalAlign=top;spacingTop=-4;fontSize=12;fontFamily=Verdana;whiteSpace=wrap;" parent="kslqDDedWuG771UUgaw6-2" vertex="1">
                    <mxGeometry x="490" y="310" width="240" height="40" as="geometry"/>
                </mxCell>
                <mxCell id="kslqDDedWuG771UUgaw6-10" value="" style="verticalLabelPosition=bottom;shadow=0;dashed=0;align=center;html=1;verticalAlign=top;strokeWidth=1;shape=mxgraph.mockup.markup.line;strokeColor=#999999;rounded=0;labelBackgroundColor=none;fillColor=#ffffff;fontFamily=Verdana;fontSize=12;fontColor=#000000;" parent="kslqDDedWuG771UUgaw6-2" vertex="1">
                    <mxGeometry y="220" width="1050" height="20" as="geometry"/>
                </mxCell>
                <mxCell id="kslqDDedWuG771UUgaw6-11" value="Ingredient 2" style="text;html=1;points=[];align=left;verticalAlign=top;spacingTop=-4;fontSize=15;fontFamily=Verdana" parent="kslqDDedWuG771UUgaw6-2" vertex="1">
                    <mxGeometry x="320" y="345" width="170" height="30" as="geometry"/>
                </mxCell>
                <mxCell id="kslqDDedWuG771UUgaw6-12" value="Ingredient&amp;nbsp;info here" style="text;html=1;points=[];align=left;verticalAlign=top;spacingTop=-4;fontSize=12;fontFamily=Verdana;whiteSpace=wrap;" parent="kslqDDedWuG771UUgaw6-2" vertex="1">
                    <mxGeometry x="490" y="345" width="240" height="40" as="geometry"/>
                </mxCell>
                <mxCell id="kslqDDedWuG771UUgaw6-13" value="Ingredient 3" style="text;html=1;points=[];align=left;verticalAlign=top;spacingTop=-4;fontSize=15;fontFamily=Verdana" parent="kslqDDedWuG771UUgaw6-2" vertex="1">
                    <mxGeometry x="320" y="380" width="170" height="30" as="geometry"/>
                </mxCell>
                <mxCell id="kslqDDedWuG771UUgaw6-14" value="Ingredient&amp;nbsp;info here" style="text;html=1;points=[];align=left;verticalAlign=top;spacingTop=-4;fontSize=12;fontFamily=Verdana;whiteSpace=wrap;" parent="kslqDDedWuG771UUgaw6-2" vertex="1">
                    <mxGeometry x="490" y="385" width="240" height="40" as="geometry"/>
                </mxCell>
                <mxCell id="1nLAXuyrzQZ8taF-vxnK-0" value="Recipe Description here&lt;br&gt;&lt;br&gt;Lorem ipsum dolor sit amet, consectetur adipisicing elit, sed do eiusmod tempor incididunt ut labore et dolore magna aliqua. Ut enim ad minim veniam, quis nostrud exercitation ullamco laboris nisi ut aliquip ex ea commodo consequat. Duis aute irure dolor in reprehenderit in voluptate velit esse cillum dolore eu fugiat nulla pariatur. Excepteur sint occaecat cupidatat non proident, sunt in culpa qui officia deserunt mollit anim id es" style="text;spacingTop=-5;whiteSpace=wrap;html=1;align=center;fontSize=12;fontFamily=Helvetica;fillColor=none;strokeColor=none;rounded=0;shadow=1;labelBackgroundColor=none;" parent="kslqDDedWuG771UUgaw6-2" vertex="1">
                    <mxGeometry x="270" y="458" width="490" height="125" as="geometry"/>
                </mxCell>
            </root>
        </mxGraphModel>
    </diagram>
</mxfile>